<svg width="32" height="32" viewBox="0 0 32 32" fill="none" xmlns="http://www.w3.org/2000/svg">
<path fill-rule="evenodd" clip-rule="evenodd" d="M16.0559 4.99999C11.7036 4.97637 8.01895 8.68766 8.02502 12.9986L8.02502 13L8.02502 14C8.02502 18.6157 7.05724 21.3954 6.12854 23H25.8715C24.9428 21.3954 23.975 18.6157 23.975 14V13.1125C23.975 8.6815 20.4382 5.03372 16.0559 4.99999ZM6.02502 13.0007C6.0178 7.58671 10.5986 2.96959 16.0681 3.00003L16.0701 3.00004C21.5874 3.04184 25.975 7.61884 25.975 13.1125V14C25.975 18.3334 26.8818 20.7534 27.6029 21.999L27.6035 22C27.7788 22.3035 27.8712 22.6478 27.8715 22.9982C27.8718 23.3487 27.78 23.6931 27.6053 23.997C27.4306 24.3008 27.1791 24.5534 26.8761 24.7294C26.573 24.9055 26.229 24.9988 25.8785 25L25.875 25H6.12502L6.1215 25C5.77102 24.9988 5.42703 24.9055 5.12397 24.7294C4.82091 24.5534 4.56943 24.3008 4.39473 23.997C4.22002 23.6931 4.12823 23.3487 4.12854 22.9982C4.12885 22.6478 4.22125 22.3035 4.3965 22L4.39709 21.999C5.11821 20.7534 6.02502 18.3334 6.02502 14V13.0007Z" fill="#080804"/>
<path fill-rule="evenodd" clip-rule="evenodd" d="M12 23C12.5523 23 13 23.4477 13 24V25C13 25.7956 13.3161 26.5587 13.8787 27.1213C14.4413 27.6839 15.2044 28 16 28C16.7956 28 17.5587 27.6839 18.1213 27.1213C18.6839 26.5587 19 25.7956 19 25V24C19 23.4477 19.4477 23 20 23C20.5523 23 21 23.4477 21 24V25C21 26.3261 20.4732 27.5979 19.5355 28.5355C18.5979 29.4732 17.3261 30 16 30C14.6739 30 13.4021 29.4732 12.4645 28.5355C11.5268 27.5979 11 26.3261 11 25V24C11 23.4477 11.4477 23 12 23Z" fill="#080804"/>
</svg>
