<svg width="26" height="26" viewBox="0 0 26 26" fill="none" xmlns="http://www.w3.org/2000/svg">
<rect width="26" height="26" rx="6" fill="#F3F3F2"/>
<path fill-rule="evenodd" clip-rule="evenodd" d="M15.1863 8.36988C15.1863 8.36988 15.1863 8.36988 15.1863 8.36988L8.625 14.9312V17.375H11.0688L17.6313 10.8125L17.6289 10.8101L15.1899 8.37106C15.1892 8.37045 15.189 8.37039 15.1888 8.37031C15.1884 8.37012 15.1874 8.36988 15.1863 8.36988ZM14.5688 7.74999C14.9135 7.40523 15.4699 7.4137 15.8086 7.75235L18.2467 10.1905C18.3287 10.2716 18.3939 10.3681 18.4384 10.4745C18.4832 10.5816 18.5063 10.6965 18.5063 10.8125C18.5063 10.9285 18.4832 11.0434 18.4384 11.1504C18.3939 11.2568 18.3287 11.3534 18.2467 11.4345L11.6851 17.9961L11.6844 17.9968C11.6033 18.0775 11.5072 18.1414 11.4014 18.1848C11.2959 18.2281 11.1829 18.2503 11.0688 18.25C11.0685 18.25 11.0683 18.25 11.068 18.25L11.0695 17.8125V18.25H11.0688H8.625C8.39294 18.25 8.17038 18.1578 8.00628 17.9937C7.84219 17.8296 7.75 17.6071 7.75 17.375V14.9312C7.75 14.6991 7.84219 14.4766 8.00628 14.3125L14.5688 7.74999Z" fill="#2D2D2D"/>
<path fill-rule="evenodd" clip-rule="evenodd" d="M13.1281 9.19064C13.299 9.01979 13.576 9.01979 13.7469 9.19064L16.8094 12.2531C16.9802 12.424 16.9802 12.701 16.8094 12.8719C16.6385 13.0427 16.3615 13.0427 16.1906 12.8719L13.1281 9.80936C12.9573 9.6385 12.9573 9.3615 13.1281 9.19064Z" fill="#2D2D2D"/>
</svg>
