<svg width="26" height="26" viewBox="0 0 26 26" fill="none" xmlns="http://www.w3.org/2000/svg">
<rect width="26" height="26" rx="6" fill="#F3F3F2"/>
<path d="M12.125 11.6875C12.125 11.4459 11.9291 11.25 11.6875 11.25C11.4459 11.25 11.25 11.4459 11.25 11.6875V15.1875C11.25 15.4291 11.4459 15.625 11.6875 15.625C11.9291 15.625 12.125 15.4291 12.125 15.1875V11.6875Z" fill="#2D2D2D"/>
<path d="M14.75 11.6875C14.75 11.4459 14.5541 11.25 14.3125 11.25C14.0709 11.25 13.875 11.4459 13.875 11.6875V15.1875C13.875 15.4291 14.0709 15.625 14.3125 15.625C14.5541 15.625 14.75 15.4291 14.75 15.1875V11.6875Z" fill="#2D2D2D"/>
<path fill-rule="evenodd" clip-rule="evenodd" d="M9.0625 8.625C9.30412 8.625 9.5 8.82088 9.5 9.0625V17.375H16.5V9.0625C16.5 8.82088 16.6959 8.625 16.9375 8.625C17.1791 8.625 17.375 8.82088 17.375 9.0625V17.375C17.375 17.6071 17.2828 17.8296 17.1187 17.9937C16.9546 18.1578 16.7321 18.25 16.5 18.25H9.5C9.26794 18.25 9.04538 18.1578 8.88128 17.9937C8.71719 17.8296 8.625 17.6071 8.625 17.375V9.0625C8.625 8.82088 8.82088 8.625 9.0625 8.625Z" fill="#2D2D2D"/>
<path fill-rule="evenodd" clip-rule="evenodd" d="M11.6875 6.875C11.3394 6.875 11.0056 7.01328 10.7594 7.25942C10.5133 7.50556 10.375 7.8394 10.375 8.1875V8.625H8.1875C7.94588 8.625 7.75 8.82088 7.75 9.0625C7.75 9.30412 7.94588 9.5 8.1875 9.5H17.8125C18.0541 9.5 18.25 9.30412 18.25 9.0625C18.25 8.82088 18.0541 8.625 17.8125 8.625H15.625V8.1875C15.625 7.8394 15.4867 7.50556 15.2406 7.25942C14.9944 7.01328 14.6606 6.875 14.3125 6.875H11.6875ZM14.75 8.625V8.1875C14.75 8.07147 14.7039 7.96019 14.6219 7.87814C14.5398 7.79609 14.4285 7.75 14.3125 7.75H11.6875C11.5715 7.75 11.4602 7.79609 11.3781 7.87814C11.2961 7.96019 11.25 8.07147 11.25 8.1875V8.625H14.75Z" fill="#2D2D2D"/>
</svg>
