<svg width="37" height="37" viewBox="0 0 37 37" fill="none" xmlns="http://www.w3.org/2000/svg">
<path d="M18.5 16.9583C19.7196 16.9583 20.9119 16.5967 21.926 15.9191C22.9401 15.2415 23.7305 14.2784 24.1972 13.1516C24.664 12.0247 24.7861 10.7848 24.5482 9.58861C24.3102 8.3924 23.7229 7.2936 22.8605 6.43118C21.998 5.56875 20.8993 4.98144 19.703 4.74349C18.5068 4.50555 17.2669 4.62767 16.1401 5.09441C15.0133 5.56115 14.0502 6.35155 13.3726 7.36565C12.695 8.37976 12.3333 9.57202 12.3333 10.7917C12.3333 12.4272 12.983 13.9957 14.1395 15.1522C15.296 16.3086 16.8645 16.9583 18.5 16.9583ZM18.5 7.70834C19.1098 7.70834 19.7059 7.88917 20.213 8.22797C20.72 8.56677 21.1152 9.04832 21.3486 9.61173C21.582 10.1751 21.643 10.7951 21.5241 11.3932C21.4051 11.9913 21.1114 12.5407 20.6802 12.9719C20.249 13.4031 19.6996 13.6968 19.1015 13.8158C18.5034 13.9347 17.8834 13.8737 17.32 13.6403C16.7566 13.4069 16.2751 13.0117 15.9363 12.5047C15.5975 11.9976 15.4166 11.4015 15.4166 10.7917C15.4166 9.97392 15.7415 9.18966 16.3197 8.61142C16.898 8.03319 17.6822 7.70834 18.5 7.70834Z" fill="black"/>
<path d="M18.4998 20.0417C15.6377 20.0417 12.8928 21.1786 10.8689 23.2025C8.84511 25.2263 7.70813 27.9712 7.70813 30.8333C7.70813 31.2422 7.87056 31.6343 8.15967 31.9235C8.44879 32.2126 8.84092 32.375 9.2498 32.375C9.65867 32.375 10.0508 32.2126 10.3399 31.9235C10.629 31.6343 10.7915 31.2422 10.7915 30.8333C10.7915 28.789 11.6036 26.8283 13.0492 25.3827C14.4948 23.9371 16.4554 23.125 18.4998 23.125C20.5442 23.125 22.5048 23.9371 23.9504 25.3827C25.396 26.8283 26.2081 28.789 26.2081 30.8333C26.2081 31.2422 26.3706 31.6343 26.6597 31.9235C26.9488 32.2126 27.3409 32.375 27.7498 32.375C28.1587 32.375 28.5508 32.2126 28.8399 31.9235C29.129 31.6343 29.2915 31.2422 29.2915 30.8333C29.2915 27.9712 28.1545 25.2263 26.1307 23.2025C24.1068 21.1786 21.3619 20.0417 18.4998 20.0417Z" fill="black"/>
</svg>
