<svg width="32" height="32" viewBox="0 0 32 32" fill="none" xmlns="http://www.w3.org/2000/svg">
<path fill-rule="evenodd" clip-rule="evenodd" d="M3.1362 21.4961C3.41448 21.0191 4.0268 20.8579 4.50385 21.1362L16 27.8423L27.4961 21.1362C27.9732 20.8579 28.5855 21.0191 28.8638 21.4961C29.142 21.9732 28.9809 22.5855 28.5039 22.8638L16.5039 29.8638C16.1925 30.0454 15.8075 30.0454 15.4961 29.8638L3.49611 22.8638C3.01906 22.5855 2.85792 21.9732 3.1362 21.4961Z" fill="#080804"/>
<path fill-rule="evenodd" clip-rule="evenodd" d="M3.1362 15.4961C3.41448 15.0191 4.0268 14.8579 4.50385 15.1362L16 21.8423L27.4961 15.1362C27.9732 14.8579 28.5855 15.0191 28.8638 15.4961C29.142 15.9732 28.9809 16.5855 28.5039 16.8638L16.5039 23.8638C16.1925 24.0454 15.8075 24.0454 15.4961 23.8638L3.49611 16.8638C3.01906 16.5855 2.85792 15.9732 3.1362 15.4961Z" fill="#080804"/>
<path fill-rule="evenodd" clip-rule="evenodd" d="M15.4961 2.13622C15.8075 1.95459 16.1925 1.95459 16.5039 2.13622L28.5039 9.13622C28.8111 9.31543 29 9.64433 29 10C29 10.3557 28.8111 10.6846 28.5039 10.8638L16.5039 17.8638C16.1925 18.0454 15.8075 18.0454 15.4961 17.8638L3.49613 10.8638C3.18891 10.6846 3 10.3557 3 10C3 9.64433 3.18891 9.31543 3.49613 9.13622L15.4961 2.13622ZM5.98464 10L16 15.8423L26.0154 10L16 4.1577L5.98464 10Z" fill="#080804"/>
</svg>
