<svg width="32" height="32" viewBox="0 0 32 32" fill="none" xmlns="http://www.w3.org/2000/svg">
<path fill-rule="evenodd" clip-rule="evenodd" d="M6 16.45C6.55228 16.45 7 16.8977 7 17.45V26H25V17.45C25 16.8977 25.4477 16.45 26 16.45C26.5523 16.45 27 16.8977 27 17.45V26C27 26.5304 26.7893 27.0391 26.4142 27.4142C26.0391 27.7893 25.5304 28 25 28H7C6.46957 28 5.96086 27.7893 5.58579 27.4142C5.21071 27.0391 5 26.5304 5 26V17.45C5 16.8977 5.44772 16.45 6 16.45Z" fill="#080804"/>
<path fill-rule="evenodd" clip-rule="evenodd" d="M6.74998 4H25.2582C25.6894 4.00355 26.1081 4.14553 26.4525 4.40497C26.7969 4.66442 27.0489 5.02762 27.1713 5.44108L27.1743 5.45102L28.9617 11.726C29.0477 12.0277 28.9871 12.3522 28.7981 12.6025C28.6091 12.8528 28.3136 13 28 13H4.00001C3.68636 13 3.39088 12.8528 3.2019 12.6025C3.01292 12.3522 2.95234 12.0277 3.03827 11.726L4.82858 5.44107C4.95101 5.02761 5.20305 4.66441 5.54748 4.40497C5.89191 4.14553 6.31056 4.00358 6.74175 4.00003L6.74998 4ZM6.75739 6C6.75501 6.00018 6.75272 6.00104 6.7508 6.00248C6.74894 6.00388 6.74751 6.00577 6.74667 6.00793L5.32465 11H26.6753L25.2533 6.00793C25.2525 6.00577 25.251 6.00388 25.2492 6.00248C25.2473 6.00104 25.245 6.00018 25.2426 6H6.75739Z" fill="#080804"/>
<path d="M4 11C4.55228 11 5 11.4477 5 12V14C5 14.7956 5.31607 15.5587 5.87868 16.1213C6.44129 16.6839 7.20435 17 8 17C8.79565 17 9.55871 16.6839 10.1213 16.1213C10.6839 15.5587 11 14.7956 11 14V12C11 11.4477 11.4477 11 12 11C12.5523 11 13 11.4477 13 12V14C13 14.7956 13.3161 15.5587 13.8787 16.1213C14.4413 16.6839 15.2044 17 16 17C16.7956 17 17.5587 16.6839 18.1213 16.1213C18.6839 15.5587 19 14.7956 19 14V12C19 11.4477 19.4477 11 20 11C20.5523 11 21 11.4477 21 12V14C21 14.7956 21.3161 15.5587 21.8787 16.1213C22.4413 16.6839 23.2044 17 24 17C24.7956 17 25.5587 16.6839 26.1213 16.1213C26.6839 15.5587 27 14.7956 27 14V12C27 11.4477 27.4477 11 28 11C28.5523 11 29 11.4477 29 12V14C29 15.3261 28.4732 16.5979 27.5355 17.5355C26.5979 18.4732 25.3261 19 24 19C22.6739 19 21.4021 18.4732 20.4645 17.5355C20.2962 17.3673 20.1411 17.1882 20 17C19.8589 17.1882 19.7038 17.3673 19.5355 17.5355C18.5979 18.4732 17.3261 19 16 19C14.6739 19 13.4021 18.4732 12.4645 17.5355C12.2962 17.3673 12.1411 17.1882 12 17C11.8589 17.1882 11.7038 17.3673 11.5355 17.5355C10.5979 18.4732 9.32608 19 8 19C6.67392 19 5.40215 18.4732 4.46447 17.5355C3.52678 16.5979 3 15.3261 3 14V12C3 11.4477 3.44772 11 4 11Z" fill="#080804"/>
</svg>
