<svg width="32" height="32" viewBox="0 0 32 32" fill="none" xmlns="http://www.w3.org/2000/svg">
<path fill-rule="evenodd" clip-rule="evenodd" d="M8.5 22C7.39543 22 6.5 22.8954 6.5 24C6.5 25.1046 7.39543 26 8.5 26C9.60457 26 10.5 25.1046 10.5 24C10.5 22.8954 9.60457 22 8.5 22ZM12.374 23C11.9299 21.2748 10.3638 20 8.5 20C6.29086 20 4.5 21.7909 4.5 24C4.5 26.2091 6.29086 28 8.5 28C10.3638 28 11.9299 26.7252 12.374 25H19.626C20.0701 26.7252 21.6362 28 23.5 28C25.7091 28 27.5 26.2091 27.5 24C27.5 21.7909 25.7091 20 23.5 20C21.6362 20 20.0701 21.2748 19.626 23H12.374ZM21.5 24C21.5 25.1046 22.3954 26 23.5 26C24.6046 26 25.5 25.1046 25.5 24C25.5 22.8954 24.6046 22 23.5 22C22.3954 22 21.5 22.8954 21.5 24Z" fill="#080804"/>
<path fill-rule="evenodd" clip-rule="evenodd" d="M3 7C2.46957 7 1.96086 7.21071 1.58579 7.58579C1.21071 7.96086 1 8.46957 1 9V18V23C1 23.5304 1.21071 24.0391 1.58579 24.4142C1.96086 24.7893 2.46957 25 3 25H5.5C6.05228 25 6.5 24.5523 6.5 24C6.5 23.4477 6.05228 23 5.5 23H3V19H21V21.4C21 21.9523 21.4477 22.4 22 22.4C22.5523 22.4 23 21.9523 23 21.4V18V8C23 7.44772 22.5523 7 22 7H3ZM21 17V9L3 9V17H21Z" fill="#080804"/>
<path fill-rule="evenodd" clip-rule="evenodd" d="M22 9C21.4477 9 21 9.44772 21 10C21 10.5523 21.4477 11 22 11H27C27.105 11 27.1877 11.0045 27.2541 11.0132C27.2894 11.0179 27.3155 11.0232 27.3341 11.0279L28.5229 14H22C21.4477 14 21 14.4477 21 15C21 15.5523 21.4477 16 22 16H29V23H26.5C25.9477 23 25.5 23.4477 25.5 24C25.5 24.5523 25.9477 25 26.5 25H29C29.5304 25 30.0391 24.7893 30.4142 24.4142C30.7893 24.0391 31 23.5304 31 23V15.0214C31.0014 14.9557 30.9964 14.8893 30.9844 14.8231C30.9709 14.7477 30.949 14.6751 30.9196 14.6065L29.1802 10.2579L29.1792 10.2554C28.9619 9.70684 28.5624 9.36308 28.1133 9.18249C27.7098 9.02021 27.2935 9 27 9H22Z" fill="#080804"/>
</svg>
