<svg width="100" height="49" viewBox="0 0 100 49" fill="none" xmlns="http://www.w3.org/2000/svg">
<g clip-path="url(#clip0_112_1080)">
<path d="M6.5528 13.4306V0H14.5698V5.37585H11.8944V2.68793H9.21911V8.06378H11.8944V10.7517H9.21911V13.4396H6.54376L6.5528 13.4306Z" fill="#FFD200"/>
<path d="M19.3872 13.4306V5.37585H27.4042V8.06378H22.0535V13.4396H19.3782L19.3872 13.4306Z" fill="#FFD200"/>
<path d="M34.8879 2.68793V0H37.5633V2.68793H34.8879ZM34.8879 13.4306V5.37585H37.5633V13.4306H34.8879Z" fill="#FFD200"/>
<path d="M42.3807 13.4306V0H45.056V5.37585H47.7314V8.06378H45.056V13.4396H42.3807V13.4306ZM47.7314 5.37585V2.68793H50.4067V5.37585H47.7314ZM47.7314 13.4306V8.0547H50.4067V13.4306H47.7314Z" fill="#FFD200"/>
<path d="M57.8814 2.68793V0H60.5568V2.68793H57.8814ZM57.8814 13.4306V5.37585H60.5568V13.4306H57.8814Z" fill="#FFD200"/>
<path d="M28.6876 46.7209H27.2144L26.7986 48.6188H20.4356L18.8539 43.4154L17.0463 48.6188H6.73355L0 17.8711H11.081L12.6356 22.4841L14.4071 17.8711H22.9845L24.5752 22.1118L26.3106 17.8711H34.9964L28.6876 46.7209ZM27.2144 19.0062L24.6475 30.8839L22.0806 19.0062H15.32L12.7531 30.8839L10.1862 19.0062H3.78706L9.52639 45.5767H15.9074L18.6641 32.8181L21.4208 45.5767H27.7657L33.5864 19.0062H27.2054H27.2144Z" fill="#FFD200"/>
<path d="M52.7115 26.5251V27.3969H53.7328V36.0509H51.8438V37.9488H54.6005V46.7209H52.7115V48.6188H37.1837V19.769H39.0727V17.8711H54.6005V26.5251H52.7115ZM53.4707 19.0062H40.2115V45.5767H53.4707V39.2019H46.5564V34.9158H52.603V28.541H46.5564V25.39H53.4707V19.0152V19.0062Z" fill="#FFD200"/>
<path d="M73.3731 26.5251V27.3969H74.3944V36.0509H72.5054V37.9488H75.2621V46.7209H73.3731V48.6188H57.8453V19.769H59.7343V17.8711H75.2621V26.5251H73.3731ZM74.1323 19.0062H60.8731V45.5767H74.1323V39.2019H67.218V34.9158H73.2647V28.541H67.218V25.39H74.1323V19.0152V19.0062Z" fill="#FFD200"/>
<path d="M94.9385 27.5512C96.4117 33.5083 98.1471 40.8002 99.5842 46.7209H97.2071L97.6952 48.6188H89.0094L88.5213 46.7209H87.1655V48.6188H78.5159V19.769H80.4049V17.8711H89.0545V20.114L89.2082 19.8144H90.0759L91.0972 17.9165H100.018L94.9566 27.5603L94.9385 27.5512ZM91.766 19.0516L87.9157 26.3798V19.0152H81.5347V45.5858H87.9157V38.4119L89.3528 35.6786L91.7751 45.5858H98.1561L93.7364 27.4059L98.1561 19.0516H91.7751H91.766Z" fill="#FFD200"/>
</g>
<defs>
<clipPath id="clip0_112_1080">
<rect width="100" height="48.6188" fill="white"/>
</clipPath>
</defs>
</svg>
